<svg width="91" height="33" viewBox="0 0 91 33" fill="none" xmlns="http://www.w3.org/2000/svg">
<path d="M5.74219 17.8135C5.35482 18.1325 5.13835 18.7021 5.09277 19.5225C5.06999 20.32 5.20671 21.1403 5.50293 21.9834C5.82194 22.8037 6.30046 23.5329 6.93848 24.1709C7.5765 24.8089 8.37402 25.1279 9.33105 25.1279C9.94629 25.1279 10.4704 24.9798 10.9033 24.6836C11.359 24.3874 11.7236 24.0228 11.9971 23.5898C12.2933 23.1341 12.5098 22.6328 12.6465 22.0859C12.7832 21.5391 12.8516 21.0036 12.8516 20.4795C12.8516 19.7275 12.7035 19.1009 12.4072 18.5996C12.1338 18.0983 11.7578 17.6654 11.2793 17.3008C10.8236 16.9134 10.2881 16.5944 9.67285 16.3438C9.0804 16.0703 8.47656 15.7969 7.86133 15.5234C7.29167 15.2956 6.60807 15.0107 5.81055 14.6689C5.01302 14.3044 4.24967 13.8372 3.52051 13.2676C2.79134 12.6751 2.16471 11.9574 1.64062 11.1143C1.13932 10.2484 0.888672 9.1888 0.888672 7.93555C0.888672 7.11523 1.10514 6.28353 1.53809 5.44043C1.97103 4.59733 2.58626 3.83398 3.38379 3.15039C4.18132 2.44401 5.13835 1.87435 6.25488 1.44141C7.39421 1.00846 8.67025 0.791992 10.083 0.791992C11.473 0.791992 12.6009 0.917318 13.4668 1.16797C14.3327 1.41862 15.0049 1.74902 15.4834 2.15918C15.9619 2.54655 16.2809 2.97949 16.4404 3.45801C16.6227 3.91374 16.7139 4.34668 16.7139 4.75684C16.7139 5.16699 16.5885 5.58854 16.3379 6.02148C16.0872 6.43164 15.791 6.81901 15.4492 7.18359C15.1074 7.52539 14.7542 7.83301 14.3896 8.10645C14.0251 8.3571 13.7288 8.52799 13.501 8.61914C13.6149 8.32292 13.7288 7.91276 13.8428 7.38867C13.9567 6.86458 13.9225 6.34049 13.7402 5.81641C13.5807 5.29232 13.182 4.83659 12.5439 4.44922C11.9287 4.06185 10.9261 3.86816 9.53613 3.86816C8.73861 3.86816 7.96387 3.99349 7.21191 4.24414C6.45996 4.49479 5.78776 4.8252 5.19531 5.23535C4.62565 5.62272 4.16992 6.06706 3.82812 6.56836C3.48633 7.06966 3.31543 7.58236 3.31543 8.10645C3.31543 8.60775 3.48633 9.07487 3.82812 9.50781C4.19271 9.91797 4.67122 10.3167 5.26367 10.7041C5.87891 11.0687 6.57389 11.4333 7.34863 11.7979C8.14616 12.1624 8.97786 12.527 9.84375 12.8916C10.6868 13.2562 11.5186 13.6549 12.3389 14.0879C13.1592 14.498 13.8883 14.9766 14.5264 15.5234C15.1872 16.0703 15.7113 16.6855 16.0986 17.3691C16.486 18.0527 16.6797 18.8389 16.6797 19.7275C16.6797 20.6846 16.4974 21.6074 16.1328 22.4961C15.791 23.362 15.2897 24.1253 14.6289 24.7861C13.9909 25.4469 13.2048 25.971 12.2705 26.3584C11.3363 26.7686 10.2767 26.9736 9.0918 26.9736C8.04362 26.9736 7.05241 26.8027 6.11816 26.4609C5.18392 26.1191 4.36361 25.6748 3.65723 25.1279C2.97363 24.5811 2.42676 23.9772 2.0166 23.3164C1.60645 22.6556 1.40137 22.0062 1.40137 21.3682C1.40137 20.6846 1.54948 20.1035 1.8457 19.625C2.16471 19.1465 2.55208 18.7705 3.00781 18.4971C3.46354 18.2008 3.93066 17.9958 4.40918 17.8818C4.91048 17.7679 5.35482 17.7451 5.74219 17.8135ZM25.5322 10.4648C26.1702 10.4648 26.7627 10.6471 27.3096 11.0117C27.8564 11.3763 28.3236 11.8548 28.7109 12.4473C29.0983 13.0397 29.4059 13.7233 29.6338 14.498C29.8617 15.25 29.9756 16.0361 29.9756 16.8564C29.9756 17.6768 29.8844 18.5426 29.7021 19.4541C29.5199 20.3656 29.235 21.2087 28.8477 21.9834C28.4603 22.7581 27.959 23.4076 27.3438 23.9316C26.7285 24.4329 25.9766 24.6836 25.0879 24.6836C24.3815 24.6836 23.7093 24.4329 23.0713 23.9316C22.4561 23.4076 21.9775 22.7581 21.6357 21.9834C21.5902 22.7809 21.4876 23.5898 21.3281 24.4102C21.1686 25.2533 21.0889 26.2559 21.0889 27.418C21.0889 27.7598 21.1003 28.1471 21.123 28.5801C21.1458 29.013 21.18 29.446 21.2256 29.8789C21.2712 30.3118 21.3395 30.7106 21.4307 31.0752C21.5218 31.4398 21.6243 31.7246 21.7383 31.9297C21.3509 32.1576 20.9977 32.3285 20.6787 32.4424C20.3825 32.5563 20.1204 32.6361 19.8926 32.6816C19.6419 32.75 19.4027 32.7842 19.1748 32.7842C18.8786 32.7842 18.6849 32.6589 18.5938 32.4082C18.5026 32.1576 18.457 31.7132 18.457 31.0752C18.457 30.665 18.4684 30.0726 18.4912 29.2979C18.5368 28.5459 18.5824 27.68 18.6279 26.7002C18.6963 25.7204 18.7533 24.695 18.7988 23.624C18.8672 22.5303 18.9242 21.4593 18.9697 20.4111C19.0381 19.363 19.0837 18.3945 19.1064 17.5059C19.152 16.5944 19.1748 15.8311 19.1748 15.2158C19.1748 14.4639 19.1634 13.8828 19.1406 13.4727C19.1178 13.0397 19.0837 12.7207 19.0381 12.5156C19.0153 12.2878 18.9811 12.1283 18.9355 12.0371C18.89 11.946 18.833 11.8434 18.7646 11.7295C18.9697 11.57 19.209 11.4333 19.4824 11.3193C19.7786 11.1826 20.0635 11.0915 20.3369 11.0459C20.6331 10.9775 20.8952 10.9548 21.123 10.9775C21.3737 11.0003 21.5674 11.0573 21.7041 11.1484C21.818 11.2624 21.8978 11.4333 21.9434 11.6611C22.0117 11.889 22.0687 12.2308 22.1143 12.6865C22.5472 12.0941 23.0371 11.5814 23.584 11.1484C24.1536 10.6927 24.8031 10.4648 25.5322 10.4648ZM24.1992 22.667C24.6094 22.667 24.9967 22.4733 25.3613 22.0859C25.7487 21.6986 26.0791 21.2087 26.3525 20.6162C26.6488 20.001 26.8766 19.3288 27.0361 18.5996C27.2184 17.8477 27.3096 17.1071 27.3096 16.3779C27.3096 15.5804 27.2298 14.931 27.0703 14.4297C26.9336 13.9056 26.7513 13.4954 26.5234 13.1992C26.3184 12.8802 26.0905 12.6637 25.8398 12.5498C25.612 12.4131 25.4069 12.3447 25.2246 12.3447C24.7917 12.3447 24.3815 12.527 23.9941 12.8916C23.6068 13.2334 23.265 13.6891 22.9688 14.2588C22.6725 14.8057 22.4333 15.4209 22.251 16.1045C22.0915 16.7881 22.0117 17.4717 22.0117 18.1553C22.0117 18.7933 22.0687 19.3857 22.1826 19.9326C22.3193 20.4795 22.4902 20.958 22.6953 21.3682C22.9004 21.7783 23.1283 22.0973 23.3789 22.3252C23.6523 22.5531 23.9258 22.667 24.1992 22.667ZM41.2207 13.5068C41.2207 13.8258 41.1296 14.1562 40.9473 14.498C40.7878 14.8171 40.5827 15.1247 40.332 15.4209C40.0814 15.7171 39.7965 15.9792 39.4775 16.207C39.1813 16.4121 38.8965 16.5374 38.623 16.583C38.8053 15.8766 38.8623 15.3298 38.7939 14.9424C38.7256 14.555 38.6117 14.2702 38.4521 14.0879C38.2699 13.8828 38.042 13.7689 37.7686 13.7461C37.3584 13.7461 36.9596 13.9854 36.5723 14.4639C36.2077 14.9196 35.8887 15.4893 35.6152 16.1729C35.3418 16.8337 35.1253 17.5514 34.9658 18.3262C34.8063 19.0781 34.7266 19.7617 34.7266 20.377C34.7038 20.8099 34.7152 21.2314 34.7607 21.6416C34.7835 21.9834 34.8177 22.3366 34.8633 22.7012C34.9316 23.0658 35.0228 23.3506 35.1367 23.5557C35 23.6696 34.7721 23.8063 34.4531 23.9658C34.1569 24.1253 33.8379 24.2279 33.4961 24.2734C33.1771 24.319 32.8809 24.262 32.6074 24.1025C32.3568 23.943 32.2201 23.6012 32.1973 23.0771C32.1517 22.5758 32.1175 22.0176 32.0947 21.4023C32.0947 20.7643 32.0947 20.1377 32.0947 19.5225C32.1175 18.8844 32.1403 18.2578 32.1631 17.6426C32.1859 17.0273 32.2201 16.4577 32.2656 15.9336C32.3112 14.931 32.334 14.1562 32.334 13.6094C32.334 13.0625 32.3226 12.5384 32.2998 12.0371C32.2998 11.946 32.4479 11.8206 32.7441 11.6611C33.0632 11.4788 33.4049 11.3193 33.7695 11.1826C34.1569 11.0459 34.5101 10.9661 34.8291 10.9434C35.1481 10.9206 35.3076 10.9889 35.3076 11.1484C35.3076 11.3991 35.2734 11.9004 35.2051 12.6523C35.1595 13.3815 35.0911 14.1449 35 14.9424C35.1595 14.5094 35.3646 14.0423 35.6152 13.541C35.8887 13.0397 36.1963 12.5726 36.5381 12.1396C36.8799 11.7067 37.2673 11.3535 37.7002 11.0801C38.1331 10.7839 38.6117 10.6357 39.1357 10.6357C39.5459 10.6357 39.8763 10.7611 40.127 11.0117C40.4004 11.2624 40.6169 11.5472 40.7764 11.8662C40.9359 12.1852 41.0498 12.5042 41.1182 12.8232C41.1865 13.1423 41.2207 13.3701 41.2207 13.5068ZM51.748 18.1211C51.7025 19.0098 51.543 19.8301 51.2695 20.582C51.0189 21.334 50.6657 21.9948 50.21 22.5645C49.7542 23.1113 49.2074 23.5443 48.5693 23.8633C47.9541 24.1823 47.2705 24.3532 46.5186 24.376C45.8577 24.3988 45.2311 24.2393 44.6387 23.8975C44.069 23.5557 43.5677 23.0771 43.1348 22.4619C42.7018 21.8467 42.3714 21.1175 42.1436 20.2744C41.9385 19.4085 41.8815 18.4743 41.9727 17.4717C42.041 16.3096 42.2575 15.3184 42.6221 14.498C42.9867 13.6549 43.374 12.96 43.7842 12.4131C44.1943 11.8662 44.5703 11.4674 44.9121 11.2168C45.2767 10.9434 45.5046 10.7839 45.5957 10.7383C45.7552 10.6699 45.9033 10.6585 46.04 10.7041C46.1768 10.7269 46.3249 10.7611 46.4844 10.8066C46.5299 10.8294 46.5755 10.8864 46.6211 10.9775C46.7122 11.137 46.7692 11.4333 46.792 11.8662C46.9059 11.6156 47.054 11.4105 47.2363 11.251C47.4186 11.0915 47.6009 10.9775 47.7832 10.9092C48.0111 10.818 48.2389 10.7611 48.4668 10.7383C48.6263 10.7155 48.8997 10.8408 49.2871 11.1143C49.6973 11.3877 50.0846 11.8206 50.4492 12.4131C50.8366 13.0055 51.167 13.7803 51.4404 14.7373C51.7139 15.6715 51.8164 16.7995 51.748 18.1211ZM49.4238 17.7109C49.4466 17.1641 49.4238 16.6172 49.3555 16.0703C49.3099 15.5007 49.2188 14.988 49.082 14.5322C48.9681 14.0537 48.82 13.6777 48.6377 13.4043C48.4554 13.1081 48.2731 12.96 48.0908 12.96C47.8857 13.0055 47.6579 13.1081 47.4072 13.2676C47.2021 13.4043 46.9743 13.6208 46.7236 13.917C46.473 14.2132 46.2337 14.6348 46.0059 15.1816C45.9831 15.1133 45.9603 14.988 45.9375 14.8057C45.9147 14.6462 45.8919 14.4411 45.8691 14.1904C45.8691 13.917 45.8919 13.5524 45.9375 13.0967C45.6185 13.484 45.3678 13.9398 45.1855 14.4639C45.026 14.988 44.9007 15.4893 44.8096 15.9678C44.7184 16.5374 44.6501 17.1071 44.6045 17.6768C44.5817 18.292 44.6045 18.8958 44.6729 19.4883C44.764 20.0807 44.9007 20.6048 45.083 21.0605C45.2881 21.5163 45.5273 21.8809 45.8008 22.1543C46.0742 22.4277 46.4046 22.5531 46.792 22.5303C47.1794 22.5075 47.5212 22.348 47.8174 22.0518C48.1136 21.7555 48.3757 21.3796 48.6035 20.9238C48.8314 20.4681 49.0137 19.9554 49.1504 19.3857C49.2871 18.8161 49.3783 18.2578 49.4238 17.7109ZM61.3525 11.2852C61.3525 11.0345 61.5007 10.8522 61.7969 10.7383C62.1159 10.6016 62.4463 10.5332 62.7881 10.5332C63.1527 10.5332 63.4831 10.6016 63.7793 10.7383C64.0755 10.8522 64.2122 11.0117 64.1895 11.2168C64.1667 11.3763 64.1439 11.6953 64.1211 12.1738C64.0983 12.6296 64.0641 13.1764 64.0186 13.8145C63.9958 14.4525 63.9616 15.1361 63.916 15.8652C63.8704 16.5944 63.8249 17.3122 63.7793 18.0186C63.7565 18.7021 63.7337 19.3402 63.7109 19.9326C63.7109 20.5251 63.7109 20.9808 63.7109 21.2998C63.7109 21.71 63.7337 22.0859 63.7793 22.4277C63.8249 22.724 63.8818 23.0202 63.9502 23.3164C64.0186 23.5898 64.1211 23.7835 64.2578 23.8975C64.0755 23.9658 63.8818 24.0114 63.6768 24.0342C63.4945 24.057 63.3236 24.0798 63.1641 24.1025C62.9818 24.1253 62.7995 24.1367 62.6172 24.1367C62.2298 24.1367 61.8994 24.057 61.626 23.8975C61.3753 23.738 61.25 23.4076 61.25 22.9062C61.25 22.6556 61.2614 22.291 61.2842 21.8125C61.3298 21.334 61.3753 20.8213 61.4209 20.2744C61.2614 20.7529 61.0677 21.2428 60.8398 21.7441C60.612 22.2454 60.3271 22.6898 59.9854 23.0771C59.6663 23.4645 59.3018 23.7835 58.8916 24.0342C58.4814 24.2848 58.0143 24.4102 57.4902 24.4102C56.8978 24.4102 56.3509 24.2848 55.8496 24.0342C55.3711 23.7835 54.9495 23.4303 54.585 22.9746C54.2204 22.4961 53.9469 21.915 53.7646 21.2314C53.5824 20.5479 53.514 19.7617 53.5596 18.873C53.5596 18.1895 53.571 17.4603 53.5938 16.6855C53.6165 16.0247 53.6507 15.2614 53.6963 14.3955C53.7419 13.5296 53.8216 12.6296 53.9355 11.6953C53.9583 11.6042 54.1178 11.4902 54.4141 11.3535C54.7103 11.2168 55.0407 11.1029 55.4053 11.0117C55.7699 10.9206 56.123 10.8864 56.4648 10.9092C56.8066 10.932 57.0573 11.0687 57.2168 11.3193C57.1029 11.7295 56.9889 12.2194 56.875 12.7891C56.7611 13.3359 56.6585 13.9056 56.5674 14.498C56.4762 15.0905 56.4079 15.6715 56.3623 16.2412C56.3167 16.8109 56.2939 17.335 56.2939 17.8135C56.2939 18.2464 56.3167 18.7249 56.3623 19.249C56.4079 19.7503 56.4876 20.2288 56.6016 20.6846C56.7383 21.1175 56.9206 21.4821 57.1484 21.7783C57.3991 22.0745 57.7181 22.2227 58.1055 22.2227C58.5384 22.2227 58.9144 22.0404 59.2334 21.6758C59.5752 21.2884 59.86 20.7985 60.0879 20.2061C60.3158 19.6136 60.5094 18.9414 60.6689 18.1895C60.8285 17.4147 60.9538 16.6514 61.0449 15.8994C61.1589 15.1475 61.2272 14.4297 61.25 13.7461C61.2956 13.0397 61.3298 12.4473 61.3525 11.9688V11.2852ZM79.4336 8.79004C79.1829 8.74447 78.8411 8.69889 78.4082 8.65332C77.998 8.60775 77.5765 8.57357 77.1436 8.55078C76.6423 8.52799 76.1068 8.5166 75.5371 8.5166C74.9674 8.47103 74.2497 8.47103 73.3838 8.5166C72.5407 8.53939 71.652 8.55078 70.7178 8.55078C70.695 9.14323 70.6494 9.74707 70.5811 10.3623C70.5355 10.9775 70.4899 11.5814 70.4443 12.1738C70.3304 13.2676 70.2279 14.3841 70.1367 15.5234C70.0684 16.6628 70.0342 17.7451 70.0342 18.7705C70.0342 19.7959 70.0911 20.7301 70.2051 21.5732C70.3418 22.3936 70.5811 23.043 70.9229 23.5215C70.6494 23.7266 70.3532 23.8861 70.0342 24C69.7152 24.0911 69.4303 24.1595 69.1797 24.2051C68.8835 24.2734 68.5872 24.3076 68.291 24.3076C68.0176 24.3076 67.7897 24.2165 67.6074 24.0342C67.4251 23.8519 67.3226 23.5329 67.2998 23.0771C67.2542 22.3024 67.2428 21.5277 67.2656 20.7529C67.3112 19.9554 67.3568 19.1237 67.4023 18.2578C67.4707 17.3919 67.5391 16.4691 67.6074 15.4893C67.6758 14.4867 67.7441 13.3929 67.8125 12.208C67.8809 10.9775 67.915 9.78125 67.915 8.61914C67.0492 8.64193 66.32 8.65332 65.7275 8.65332C65.1351 8.65332 64.8047 8.64193 64.7363 8.61914C64.668 8.57357 64.5882 8.47103 64.4971 8.31152C64.4059 8.1748 64.292 7.96973 64.1553 7.69629C63.9958 7.42285 63.8021 7.03548 63.5742 6.53418C64.0072 6.53418 64.4857 6.53418 65.0098 6.53418C65.5111 6.53418 65.9782 6.52279 66.4111 6.5C66.9124 6.47721 67.4137 6.45443 67.915 6.43164C67.8923 6.06706 67.8809 5.67969 67.8809 5.26953C67.8581 4.95052 67.8467 4.59733 67.8467 4.20996C67.8467 3.7998 67.8353 3.42383 67.8125 3.08203C67.8125 2.94531 67.972 2.78581 68.291 2.60352C68.6328 2.39844 68.9974 2.21615 69.3848 2.05664C69.7721 1.89714 70.1253 1.7946 70.4443 1.74902C70.7861 1.70345 70.957 1.7832 70.957 1.98828C70.957 2.19336 70.9456 2.69466 70.9229 3.49219C70.9229 4.26693 70.9001 5.21257 70.8545 6.3291C71.0824 6.3291 71.2533 6.31771 71.3672 6.29492C72.5749 6.24935 73.5433 6.20378 74.2725 6.1582C75.0244 6.08984 75.6396 6.07845 76.1182 6.12402C76.5967 6.1696 77.0182 6.28353 77.3828 6.46582C77.7474 6.64811 78.1576 6.94434 78.6133 7.35449C78.7728 7.49121 78.9095 7.63932 79.0234 7.79883C79.1374 7.93555 79.2285 8.09505 79.2969 8.27734C79.388 8.43685 79.4336 8.60775 79.4336 8.79004ZM78.1348 1.85156C78.0892 2.67188 78.0094 3.61751 77.8955 4.68848C77.7816 5.75944 77.6562 6.91016 77.5195 8.14062C77.4056 9.37109 77.2803 10.6585 77.1436 12.0029C77.0296 13.3473 76.9271 14.7031 76.8359 16.0703C76.7448 17.4375 76.6992 18.554 76.6992 19.4199C76.722 20.263 76.779 20.958 76.8701 21.5049C76.9613 22.0518 77.0866 22.4847 77.2461 22.8037C77.4056 23.1227 77.6107 23.4303 77.8613 23.7266C77.5651 23.9089 77.2917 24.0456 77.041 24.1367C76.7904 24.2279 76.5739 24.2962 76.3916 24.3418C76.1637 24.4102 75.9587 24.4443 75.7764 24.4443C75.4346 24.4443 75.1383 24.2848 74.8877 23.9658C74.637 23.624 74.432 23.1911 74.2725 22.667C74.1357 22.1429 74.0218 21.5618 73.9307 20.9238C73.8623 20.263 73.8281 19.6136 73.8281 18.9756C73.8281 18.292 73.8509 17.5059 73.8965 16.6172C73.9421 15.7057 73.9876 14.7487 74.0332 13.7461C74.1016 12.7207 74.1699 11.6611 74.2383 10.5674C74.3066 9.45085 74.3636 8.3457 74.4092 7.25195C74.4548 6.40885 74.5003 5.64551 74.5459 4.96191C74.5915 4.36947 74.6257 3.83398 74.6484 3.35547C74.6712 2.85417 74.6598 2.55794 74.6143 2.4668C74.751 2.28451 74.9219 2.14779 75.127 2.05664C75.332 1.96549 75.5257 1.88574 75.708 1.81738C75.9359 1.74902 76.1637 1.69206 76.3916 1.64648H77.041C77.2233 1.64648 77.417 1.66927 77.6221 1.71484C77.8271 1.73763 77.998 1.7832 78.1348 1.85156ZM89.8584 10.875C89.904 12.8802 89.9382 14.6348 89.9609 16.1387C89.9837 17.6426 90.0065 18.9072 90.0293 19.9326C90.0521 21.1403 90.0635 22.1771 90.0635 23.043C90.0863 24.1139 89.9951 25.2191 89.79 26.3584C89.6077 27.5205 89.3001 28.5801 88.8672 29.5371C88.4342 30.4941 87.8646 31.2803 87.1582 31.8955C86.4518 32.5107 85.5973 32.8184 84.5947 32.8184C83.387 32.8184 82.4642 32.5677 81.8262 32.0664C81.1882 31.5879 80.721 31.041 80.4248 30.4258C80.1286 29.8105 79.9577 29.2295 79.9121 28.6826C79.8665 28.1585 79.8438 27.8509 79.8438 27.7598C79.8438 27.5775 79.9577 27.3724 80.1855 27.1445C80.4134 26.9167 80.7552 26.7116 81.2109 26.5293C81.3932 26.4609 81.5755 26.404 81.7578 26.3584C81.9173 26.3128 82.0768 26.2786 82.2363 26.2559C82.3958 26.2331 82.5439 26.2445 82.6807 26.29C82.4528 26.7002 82.3161 27.1673 82.2705 27.6914C82.2477 28.2155 82.3161 28.7054 82.4756 29.1611C82.6579 29.6396 82.9199 30.0384 83.2617 30.3574C83.6035 30.6764 84.0365 30.8359 84.5605 30.8359C85.2897 30.8359 85.8594 30.6195 86.2695 30.1865C86.7025 29.7764 87.0215 29.2637 87.2266 28.6484C87.4544 28.0332 87.5911 27.3838 87.6367 26.7002C87.7051 26.0166 87.7393 25.4128 87.7393 24.8887C87.7393 24.4785 87.7279 23.9544 87.7051 23.3164C87.7051 22.6556 87.6709 21.9264 87.6025 21.1289C87.3291 21.5846 87.0101 22.029 86.6455 22.4619C86.2809 22.8721 85.8936 23.2367 85.4834 23.5557C85.0732 23.8747 84.6517 24.1253 84.2188 24.3076C83.8086 24.5127 83.3984 24.6152 82.9883 24.6152C82.2819 24.6152 81.7122 24.3988 81.2793 23.9658C80.8464 23.5101 80.516 22.9518 80.2881 22.291C80.0602 21.6074 79.9007 20.8783 79.8096 20.1035C79.7412 19.306 79.707 18.5768 79.707 17.916C79.707 17.4147 79.7298 16.8109 79.7754 16.1045C79.821 15.3753 79.8779 14.6803 79.9463 14.0195C80.0146 13.3587 80.0944 12.7891 80.1855 12.3105C80.2995 11.8092 80.4134 11.5244 80.5273 11.4561C81.1882 11.0687 81.8376 10.8522 82.4756 10.8066C83.1136 10.7611 83.5921 10.8408 83.9111 11.0459C83.6377 11.251 83.4098 11.5928 83.2275 12.0713C83.0452 12.5498 82.8971 13.0853 82.7832 13.6777C82.6693 14.2474 82.5895 14.8512 82.5439 15.4893C82.4984 16.1045 82.4756 16.6628 82.4756 17.1641C82.4756 17.5742 82.487 18.0641 82.5098 18.6338C82.5326 19.2035 82.5781 19.7503 82.6465 20.2744C82.7376 20.7985 82.863 21.2428 83.0225 21.6074C83.182 21.972 83.387 22.1543 83.6377 22.1543C84.139 22.1543 84.6061 21.972 85.0391 21.6074C85.472 21.2428 85.848 20.7871 86.167 20.2402C86.5088 19.6934 86.7708 19.1123 86.9531 18.4971C87.1354 17.859 87.2266 17.2666 87.2266 16.7197V16.4463C87.181 15.8538 87.1354 15.2956 87.0898 14.7715C87.0443 14.2246 86.9987 13.7347 86.9531 13.3018C86.9303 12.8688 86.9076 12.5156 86.8848 12.2422C86.8848 11.946 86.8848 11.7523 86.8848 11.6611C86.8848 11.4333 87.0329 11.2282 87.3291 11.0459C87.6481 10.8636 87.9899 10.7383 88.3545 10.6699C88.7419 10.5788 89.0837 10.5446 89.3799 10.5674C89.6989 10.5902 89.8584 10.6927 89.8584 10.875Z" fill="#4C5740"/>
</svg>
