<svg width="46" height="46" viewBox="0 0 46 46" fill="none" xmlns="http://www.w3.org/2000/svg">
<path d="M23.5 39C23.5 39 25 33 27.5 29C29.3657 26.0149 30.5434 24.7046 32 21.5C33.8513 17.4272 34.798 10.5795 34.9709 9.23357C34.9822 9.14554 34.8846 9.09059 34.8152 9.14582C33.751 9.99181 28.3704 14.358 26 18C24.3328 20.5616 23 25 23 25" stroke="#4C5740" stroke-width="2" stroke-linecap="round"/>
<path d="M11.5 9C11.5 9 12.7909 18.5764 15.5 24C16.9522 26.9073 19.6018 28.5663 21 31.5C22.8347 35.3497 23.5 40 23.5 40" stroke="#4C5740" stroke-width="2" stroke-linecap="round"/>
<path d="M18.3652 18.9987C18.0884 18.5208 17.4765 18.3579 16.9987 18.6348C16.5208 18.9116 16.3579 19.5235 16.6348 20.0013L18.3652 18.9987ZM21 26.5L20.0666 26.8589L21 26.5ZM17.5 19.5C16.6348 20.0013 16.6347 20.0013 16.6347 20.0013C16.6347 20.0013 16.6347 20.0013 16.6348 20.0014C16.6348 20.0014 16.6349 20.0016 16.635 20.0018C16.6352 20.0022 16.6356 20.0028 16.6361 20.0037C16.6371 20.0055 16.6387 20.0082 16.6409 20.0119C16.6452 20.0194 16.6517 20.0307 16.6604 20.0458C16.6777 20.0759 16.7034 20.1208 16.7367 20.1792C16.8034 20.296 16.9001 20.4667 17.0199 20.6808C17.2595 21.1091 17.5903 21.7098 17.9549 22.3982C18.6894 23.7852 19.5408 25.4913 20.0666 26.8589L21.9334 26.1411C21.3623 24.656 20.4637 22.8621 19.7224 21.4623C19.3491 20.7573 19.0106 20.1428 18.7654 19.7044C18.6427 19.4851 18.5431 19.3095 18.4741 19.1884C18.4395 19.1278 18.4126 19.0808 18.3941 19.0488C18.3849 19.0327 18.3778 19.0204 18.373 19.012C18.3705 19.0078 18.3687 19.0046 18.3674 19.0024C18.3667 19.0012 18.3662 19.0004 18.3659 18.9997C18.3657 18.9994 18.3656 18.9992 18.3655 18.999C18.3654 18.9989 18.3653 18.9988 18.3653 18.9988C18.3653 18.9987 18.3652 18.9987 17.5 19.5ZM20.0666 26.8589C20.7918 28.7448 21.4036 31.3021 21.8376 33.4256C22.0529 34.4796 22.2217 35.4126 22.3365 36.0818C22.3939 36.4162 22.4378 36.6843 22.4672 36.8682C22.4819 36.9601 22.493 37.0309 22.5003 37.0784C22.504 37.1022 22.5068 37.1201 22.5086 37.1319C22.5095 37.1378 22.5101 37.1422 22.5106 37.145C22.5108 37.1464 22.5109 37.1474 22.511 37.148C22.5111 37.1483 22.5111 37.1485 22.5111 37.1486C22.5111 37.1487 22.5111 37.1487 22.5111 37.1487C22.5111 37.1487 22.5111 37.1487 23.5 37C24.4889 36.8513 24.4889 36.8512 24.4889 36.8511C24.4888 36.851 24.4888 36.8509 24.4888 36.8508C24.4888 36.8505 24.4887 36.8501 24.4886 36.8496C24.4885 36.8486 24.4883 36.8472 24.488 36.8455C24.4875 36.8419 24.4867 36.8368 24.4857 36.8302C24.4837 36.8169 24.4807 36.7975 24.4768 36.7722C24.4689 36.7216 24.4573 36.6475 24.4421 36.5522C24.4116 36.3617 24.3665 36.0861 24.3077 35.7435C24.1902 35.0586 24.0176 34.1043 23.7971 33.0252C23.3592 30.8822 22.721 28.1895 21.9334 26.1411L20.0666 26.8589Z" fill="#4C5740"/>
<path d="M11.5 9C11.5 9 18.6896 14.1341 21 19C22.2195 21.5682 22.4355 23.2135 23 26C24.2025 31.9357 23.5 41.5 23.5 41.5" stroke="#4C5740" stroke-width="2" stroke-linecap="round"/>
<circle cx="23" cy="23" r="22" stroke="#4C5740" stroke-width="2"/>
<path d="M23.5 33C23.5 33 25.1636 26.2831 26.5 23.5C27.4857 21.4473 29.5 18.5 29.5 18.5" stroke="#4C5740" stroke-width="2" stroke-linecap="round"/>
</svg>
